<?xml version="1.0" encoding="UTF-8"?>
<svg xmlns="http://www.w3.org/2000/svg" xmlns:xlink="http://www.w3.org/1999/xlink" width="256pt" height="288pt" viewBox="0 0 256 288" version="1.1">
<g id="surface1">
<path style=" stroke:none;fill-rule:nonzero;fill:rgb(63.137255%,47.45098%,86.27451%);fill-opacity:1;" d="M 255.570312 84.453125 C 255.566406 79.621094 254.535156 75.355469 252.445312 71.691406 C 250.394531 68.089844 247.320312 65.070312 243.199219 62.683594 C 209.171875 43.0625 175.113281 23.503906 141.101562 3.867188 C 131.929688 -1.425781 123.039062 -1.234375 113.9375 4.136719 C 100.394531 12.121094 32.589844 50.96875 12.386719 62.671875 C 4.0625 67.488281 0.015625 74.863281 0.0117188 84.445312 C 0 123.898438 0.0117188 163.351562 0 202.808594 C 0 207.53125 0.992188 211.71875 2.988281 215.324219 C 5.039062 219.035156 8.15625 222.136719 12.375 224.578125 C 32.578125 236.28125 100.394531 275.125 113.933594 283.117188 C 123.039062 288.488281 131.929688 288.679688 141.105469 283.382812 C 175.117188 263.746094 209.179688 244.1875 243.210938 224.566406 C 247.425781 222.128906 250.542969 219.023438 252.59375 215.316406 C 254.589844 211.707031 255.582031 207.523438 255.582031 202.796875 C 255.582031 202.796875 255.582031 123.910156 255.570312 84.453125 "/>
<path style=" stroke:none;fill-rule:nonzero;fill:rgb(15.686275%,0%,40.784314%);fill-opacity:1;" d="M 128.183594 143.242188 L 2.988281 215.324219 C 5.039062 219.035156 8.15625 222.136719 12.375 224.578125 C 32.578125 236.28125 100.394531 275.125 113.933594 283.117188 C 123.039062 288.488281 131.929688 288.679688 141.105469 283.382812 C 175.117188 263.746094 209.179688 244.1875 243.210938 224.566406 C 247.425781 222.128906 250.542969 219.023438 252.59375 215.316406 L 128.183594 143.242188 "/>
<path style=" stroke:none;fill-rule:nonzero;fill:rgb(22.352941%,0%,56.862745%);fill-opacity:1;" d="M 255.570312 84.453125 C 255.566406 79.621094 254.535156 75.355469 252.445312 71.691406 L 128.183594 143.242188 L 252.59375 215.316406 C 254.589844 211.707031 255.578125 207.523438 255.582031 202.796875 C 255.582031 202.796875 255.582031 123.910156 255.570312 84.453125 "/>
<path style=" stroke:none;fill-rule:nonzero;fill:rgb(100%,100%,100%);fill-opacity:1;" d="M 201.890625 116.292969 L 201.890625 129.769531 L 215.367188 129.769531 L 215.367188 116.292969 L 222.101562 116.292969 L 222.101562 129.769531 L 235.578125 129.769531 L 235.578125 136.503906 L 222.101562 136.503906 L 222.101562 149.976562 L 235.578125 149.976562 L 235.578125 156.714844 L 222.101562 156.714844 L 222.101562 170.1875 L 215.367188 170.1875 L 215.367188 156.714844 L 201.890625 156.714844 L 201.890625 170.1875 L 195.15625 170.1875 L 195.15625 156.714844 L 181.683594 156.714844 L 181.683594 149.976562 L 195.15625 149.976562 L 195.15625 136.503906 L 181.683594 136.503906 L 181.683594 129.769531 L 195.15625 129.769531 L 195.15625 116.292969 Z M 215.367188 136.503906 L 201.890625 136.503906 L 201.890625 149.976562 L 215.367188 149.976562 Z M 215.367188 136.503906 "/>
<path style=" stroke:none;fill-rule:nonzero;fill:rgb(100%,100%,100%);fill-opacity:1;" d="M 128.457031 48.625 C 163.601562 48.625 194.285156 67.710938 210.71875 96.082031 L 210.558594 95.808594 L 169.210938 119.617188 C 161.0625 105.824219 146.128906 96.515625 128.996094 96.324219 L 128.457031 96.320312 C 102.332031 96.320312 81.152344 117.5 81.152344 143.625 C 81.152344 152.167969 83.429688 160.175781 87.390625 167.09375 C 95.542969 181.328125 110.871094 190.929688 128.457031 190.929688 C 146.148438 190.929688 161.566406 181.207031 169.679688 166.820312 L 169.480469 167.164062 L 210.769531 191.082031 C 194.511719 219.214844 164.25 238.242188 129.515625 238.621094 L 128.457031 238.625 C 93.203125 238.625 62.429688 219.421875 46.039062 190.902344 C 38.035156 176.980469 33.457031 160.839844 33.457031 143.625 C 33.457031 91.160156 75.988281 48.625 128.457031 48.625 Z M 128.457031 48.625 "/>
</g>
</svg>
