<?xml version="1.0" encoding="UTF-8"?>
<svg xmlns="http://www.w3.org/2000/svg" xmlns:xlink="http://www.w3.org/1999/xlink" width="256pt" height="361pt" viewBox="0 0 256 361" version="1.1">
<g id="surface1">
<path style=" stroke:none;fill-rule:nonzero;fill:rgb(14.901961%,30.196078%,89.411765%);fill-opacity:1;" d="M 127.84375 360.089844 L 23.660156 331.167969 L 0.445312 70.765625 L 255.554688 70.765625 L 232.3125 331.125 Z M 127.84375 360.089844 "/>
<path style=" stroke:none;fill-rule:nonzero;fill:rgb(16.078431%,39.607843%,94.509804%);fill-opacity:1;" d="M 212.417969 314.546875 L 232.277344 92.058594 L 128 92.058594 L 128 337.949219 Z M 212.417969 314.546875 "/>
<path style=" stroke:none;fill-rule:nonzero;fill:rgb(92.156863%,92.156863%,92.156863%);fill-opacity:1;" d="M 53.667969 188.636719 L 56.53125 220.574219 L 128 220.574219 L 128 188.636719 Z M 53.667969 188.636719 "/>
<path style=" stroke:none;fill-rule:nonzero;fill:rgb(92.156863%,92.156863%,92.156863%);fill-opacity:1;" d="M 47.917969 123.996094 L 50.820312 155.933594 L 128 155.933594 L 128 123.996094 Z M 47.917969 123.996094 "/>
<path style=" stroke:none;fill-rule:nonzero;fill:rgb(92.156863%,92.156863%,92.156863%);fill-opacity:1;" d="M 128 271.582031 L 127.859375 271.617188 L 92.292969 262.011719 L 90.019531 236.542969 L 57.957031 236.542969 L 62.433594 286.6875 L 127.851562 304.847656 L 128 304.808594 Z M 128 271.582031 "/>
<path style=" stroke:none;fill-rule:nonzero;fill:rgb(0%,0%,0%);fill-opacity:1;" d="M 60.484375 0 L 99.164062 0 L 99.164062 16.175781 L 76.660156 16.175781 L 76.660156 32.351562 L 99.164062 32.351562 L 99.164062 48.527344 L 60.484375 48.527344 Z M 60.484375 0 "/>
<path style=" stroke:none;fill-rule:nonzero;fill:rgb(0%,0%,0%);fill-opacity:1;" d="M 106.902344 0 L 145.582031 0 L 145.582031 14.066406 L 123.078125 14.066406 L 123.078125 16.878906 L 145.582031 16.878906 L 145.582031 49.230469 L 106.902344 49.230469 L 106.902344 34.460938 L 129.40625 34.460938 L 129.40625 31.648438 L 106.902344 31.648438 Z M 106.902344 0 "/>
<path style=" stroke:none;fill-rule:nonzero;fill:rgb(0%,0%,0%);fill-opacity:1;" d="M 153.320312 0 L 192 0 L 192 14.066406 L 169.496094 14.066406 L 169.496094 16.878906 L 192 16.878906 L 192 49.230469 L 153.320312 49.230469 L 153.320312 34.460938 L 175.824219 34.460938 L 175.824219 31.648438 L 153.320312 31.648438 Z M 153.320312 0 "/>
<path style=" stroke:none;fill-rule:nonzero;fill:rgb(100%,100%,100%);fill-opacity:1;" d="M 202.125 188.636719 L 207.890625 123.996094 L 127.890625 123.996094 L 127.890625 155.933594 L 172.890625 155.933594 L 169.984375 188.636719 L 127.890625 188.636719 L 127.890625 220.574219 L 167.214844 220.574219 L 163.507812 261.992188 L 127.890625 271.605469 L 127.890625 304.832031 L 193.363281 286.6875 L 193.84375 281.292969 L 201.347656 197.210938 Z M 202.125 188.636719 "/>
</g>
</svg>
