<?xml version="1.0" encoding="UTF-8"?>
<svg xmlns="http://www.w3.org/2000/svg" xmlns:xlink="http://www.w3.org/1999/xlink" width="256pt" height="295pt" viewBox="0 0 256 295" version="1.1">
<g id="surface1">
<path style=" stroke:none;fill-rule:nonzero;fill:rgb(0%,65.882353%,9.411765%);fill-opacity:1;" d="M 129.351562 0.0351562 C 57.859375 0.0351562 0 58.039062 0 129.710938 C 0 192.816406 45.121094 245.25 104.664062 256.914062 L 104.664062 294.035156 C 182.078125 282.335938 250.621094 220.730469 255.738281 139.859375 C 258.816406 91.179688 234.609375 41.488281 193.777344 17.355469 C 191.441406 15.976562 189.066406 14.605469 186.617188 13.398438 C 184.128906 12.167969 181.566406 10.96875 178.96875 9.933594 C 178.140625 9.585938 177.332031 9.273438 176.496094 8.941406 C 174.226562 8.101562 171.933594 7.15625 169.585938 6.46875 C 156.929688 2.285156 143.398438 0.0351562 129.351562 0.0351562 Z M 129.351562 0.0351562 "/>
<path style=" stroke:none;fill-rule:nonzero;fill:rgb(100%,100%,100%);fill-opacity:1;" d="M 156.144531 47.949219 C 151.714844 47.492188 147.042969 49.039062 143.777344 52.910156 C 141.402344 56.082031 139.921875 59.15625 138.335938 62.332031 C 133.585938 73.441406 135.171875 85.34375 142.296875 94.074219 C 153.375 91.695312 162.773438 84.601562 167.523438 73.492188 C 169.109375 70.316406 169.996094 66.25 169.996094 63.074219 C 170.492188 54.644531 163.535156 48.710938 156.144531 47.949219 Z M 98.511719 48.695312 C 91.285156 49.382812 84.414062 55.140625 84.414062 63.074219 C 84.414062 66.25 85.304688 70.316406 86.886719 73.492188 C 91.636719 84.601562 101.777344 91.695312 112.859375 94.074219 C 119.191406 85.347656 120.824219 73.441406 116.074219 62.332031 C 114.492188 59.15625 113.007812 56.035156 110.632812 53.652344 C 107.367188 49.785156 102.851562 48.28125 98.511719 48.695312 Z M 59.679688 86.882812 C 47.199219 87.527344 41.621094 103.25 52.011719 111.433594 C 55.179688 113.8125 58.246094 115.550781 61.410156 117.136719 C 72.492188 121.898438 85.304688 120.261719 94.804688 113.914062 C 92.429688 103.597656 84.367188 94.125 73.285156 89.363281 C 69.324219 87.777344 66.109375 86.882812 62.152344 86.882812 C 61.261719 86.785156 60.511719 86.839844 59.679688 86.882812 Z M 181.625 134.992188 C 174.375 134.851562 167.03125 136.976562 161.09375 140.945312 C 163.46875 151.261719 171.53125 160.734375 182.613281 165.492188 C 186.570312 167.082031 189.785156 167.972656 193.746094 167.972656 C 207.992188 168.765625 214.96875 151.109375 203.886719 143.175781 C 200.71875 140.792969 197.652344 139.308594 194.488281 137.71875 C 190.332031 135.933594 185.976562 135.074219 181.625 134.992188 Z M 73.53125 135.734375 C 69.179688 135.820312 64.824219 136.679688 60.667969 138.464844 C 56.710938 140.050781 53.644531 141.789062 51.269531 144.167969 C 40.980469 152.894531 47.90625 169.511719 62.152344 168.71875 C 66.109375 168.71875 70.117188 167.824219 73.285156 166.238281 C 84.367188 161.476562 92.230469 152.003906 93.8125 141.6875 C 87.820312 137.679688 80.742188 135.605469 73.53125 135.734375 Z M 113.601562 160.039062 C 102.519531 162.417969 93.121094 169.511719 88.371094 180.621094 C 86.789062 183.792969 85.898438 187.613281 85.898438 190.789062 C 85.109375 204.277344 103.460938 211.519531 111.378906 201.203125 C 113.75 198.027344 115.234375 194.953125 116.816406 191.78125 C 121.566406 181.464844 119.933594 169.5625 113.601562 160.039062 Z M 143.039062 160.78125 C 136.703125 169.511719 135.074219 181.414062 139.820312 192.523438 C 141.40625 195.699219 142.890625 198.824219 145.265625 201.203125 C 153.972656 210.726562 172.273438 203.683594 171.484375 191.78125 C 171.484375 188.605469 170.59375 184.539062 169.011719 181.363281 C 164.261719 170.253906 154.121094 163.164062 143.039062 160.78125 Z M 143.039062 160.78125 "/>
</g>
</svg>
