<?xml version="1.0" encoding="UTF-8"?>
<svg xmlns="http://www.w3.org/2000/svg" xmlns:xlink="http://www.w3.org/1999/xlink" width="256pt" height="361pt" viewBox="0 0 256 361" version="1.1">
<g id="surface1">
<path style=" stroke:none;fill-rule:nonzero;fill:rgb(89.411765%,30.196078%,14.901961%);fill-opacity:1;" d="M 255.554688 70.765625 L 232.3125 331.125 L 127.84375 360.089844 L 23.660156 331.167969 L 0.445312 70.765625 Z M 255.554688 70.765625 "/>
<path style=" stroke:none;fill-rule:nonzero;fill:rgb(94.509804%,39.607843%,16.078431%);fill-opacity:1;" d="M 128 337.949219 L 212.417969 314.546875 L 232.277344 92.058594 L 128 92.058594 Z M 128 337.949219 "/>
<path style=" stroke:none;fill-rule:nonzero;fill:rgb(92.156863%,92.156863%,92.156863%);fill-opacity:1;" d="M 82.820312 155.933594 L 128 155.933594 L 128 123.996094 L 47.917969 123.996094 L 48.679688 132.5625 L 56.53125 220.574219 L 128 220.574219 L 128 188.636719 L 85.738281 188.636719 Z M 82.820312 155.933594 "/>
<path style=" stroke:none;fill-rule:nonzero;fill:rgb(92.156863%,92.156863%,92.156863%);fill-opacity:1;" d="M 90.019531 236.542969 L 57.957031 236.542969 L 62.433594 286.6875 L 127.851562 304.847656 L 128 304.808594 L 128 271.582031 L 127.859375 271.617188 L 92.292969 262.011719 Z M 90.019531 236.542969 "/>
<path style=" stroke:none;fill-rule:nonzero;fill:rgb(0%,0%,0%);fill-opacity:1;" d="M 24.179688 0 L 40.410156 0 L 40.410156 16.035156 L 55.257812 16.035156 L 55.257812 0 L 71.488281 0 L 71.488281 48.558594 L 55.257812 48.558594 L 55.257812 32.296875 L 40.410156 32.296875 L 40.410156 48.558594 L 24.179688 48.558594 Z M 24.179688 0 "/>
<path style=" stroke:none;fill-rule:nonzero;fill:rgb(0%,0%,0%);fill-opacity:1;" d="M 92.832031 16.101562 L 78.542969 16.101562 L 78.542969 0 L 123.355469 0 L 123.355469 16.101562 L 109.0625 16.101562 L 109.0625 48.558594 L 92.832031 48.558594 Z M 92.832031 16.101562 "/>
<path style=" stroke:none;fill-rule:nonzero;fill:rgb(0%,0%,0%);fill-opacity:1;" d="M 130.46875 0 L 147.394531 0 L 157.804688 17.0625 L 168.203125 0 L 185.132812 0 L 185.132812 48.558594 L 168.96875 48.558594 L 168.96875 24.488281 L 157.804688 41.753906 L 157.523438 41.753906 L 146.351562 24.488281 L 146.351562 48.558594 L 130.46875 48.558594 Z M 130.46875 0 "/>
<path style=" stroke:none;fill-rule:nonzero;fill:rgb(0%,0%,0%);fill-opacity:1;" d="M 193.210938 0 L 209.445312 0 L 209.445312 32.507812 L 232.269531 32.507812 L 232.269531 48.558594 L 193.210938 48.558594 Z M 193.210938 0 "/>
<path style=" stroke:none;fill-rule:nonzero;fill:rgb(100%,100%,100%);fill-opacity:1;" d="M 127.890625 220.574219 L 167.214844 220.574219 L 163.507812 261.992188 L 127.890625 271.605469 L 127.890625 304.832031 L 193.363281 286.6875 L 193.84375 281.292969 L 201.347656 197.210938 L 202.125 188.636719 L 127.890625 188.636719 Z M 127.890625 220.574219 "/>
<path style=" stroke:none;fill-rule:nonzero;fill:rgb(100%,100%,100%);fill-opacity:1;" d="M 127.890625 155.855469 L 127.890625 155.933594 L 205.03125 155.933594 L 205.671875 148.753906 L 207.128906 132.5625 L 207.890625 123.996094 L 127.890625 123.996094 Z M 127.890625 155.855469 "/>
</g>
</svg>
