<?xml version="1.0" encoding="UTF-8"?>
<svg xmlns="http://www.w3.org/2000/svg" xmlns:xlink="http://www.w3.org/1999/xlink" width="256pt" height="361pt" viewBox="0 0 256 361" version="1.1">
<g id="surface1">
<path style=" stroke:none;fill-rule:nonzero;fill:rgb(100%,100%,100%);fill-opacity:1;" d="M 0.859375 70.480469 L 0.898438 73.703125 C 0.921875 75.476562 6.058594 134.171875 12.316406 204.136719 L 23.695312 331.347656 L 74.824219 345.660156 C 102.949219 353.53125 126.539062 360.007812 127.246094 360.058594 C 127.957031 360.109375 151.859375 353.695312 180.363281 345.804688 C 226.0625 333.15625 232.230469 331.25 232.558594 329.683594 C 233.015625 327.5 255.394531 75.113281 255.371094 72.414062 L 255.355469 70.480469 Z M 0.859375 70.480469 "/>
<path style=" stroke:none;fill-rule:nonzero;fill:rgb(91.764706%,92.156863%,92.54902%);fill-opacity:1;" d="M 75.230469 346.515625 L 23.644531 332.097656 L 22.96875 328.285156 C 22.371094 324.894531 0 75.113281 0 71.8125 C 0 70.617188 13.0625 70.480469 128.109375 70.480469 C 249.546875 70.480469 256.214844 70.558594 256.203125 71.984375 C 256.164062 78.144531 233.007812 331.234375 232.441406 331.738281 C 231.722656 332.375 131.875 360.183594 128.539062 360.675781 C 127.589844 360.816406 103.605469 354.441406 75.230469 346.515625 Z M 160.636719 295.578125 C 177.976562 290.796875 192.410156 286.640625 192.71875 286.339844 C 193.023438 286.039062 195.050781 265.484375 197.226562 240.667969 C 199.398438 215.847656 201.398438 193.898438 201.667969 191.890625 L 202.152344 188.234375 L 127.246094 188.234375 L 127.246094 220.039062 L 167.691406 220.039062 L 167.289062 221.972656 C 167.066406 223.035156 166.207031 232.175781 165.375 242.285156 C 164.496094 252.996094 163.457031 261.074219 162.878906 261.652344 C 162.332031 262.195312 154.09375 264.71875 144.566406 267.257812 L 127.246094 271.871094 L 127.246094 288.070312 C 127.246094 299.128906 127.542969 304.269531 128.179688 304.269531 C 128.691406 304.269531 143.296875 300.359375 160.636719 295.578125 Z M 201.660156 168.25 C 201.09375 164.039062 196.03125 107.550781 196.03125 105.421875 C 196.03125 104.125 193.054688 104.003906 162.070312 104.003906 L 128.109375 104.003906 L 128.109375 137.257812 L 143.367188 137.847656 C 151.761719 138.167969 160.597656 138.660156 163 138.941406 L 167.367188 139.445312 L 168.429688 152.453125 C 169.011719 159.605469 169.707031 166.910156 169.972656 168.679688 L 170.457031 171.90625 L 202.152344 171.90625 Z M 201.660156 168.25 "/>
<path style=" stroke:none;fill-rule:nonzero;fill:rgb(94.117647%,74.509804%,14.509804%);fill-opacity:1;" d="M 74.824219 345.660156 L 23.695312 331.347656 L 12.316406 204.136719 C 6.058594 134.171875 0.921875 75.476562 0.898438 73.703125 L 0.859375 70.480469 L 255.355469 70.480469 L 255.371094 72.414062 C 255.394531 75.113281 233.015625 327.503906 232.558594 329.683594 C 232.230469 331.25 226.0625 333.15625 180.363281 345.804688 C 151.859375 353.695312 127.957031 360.109375 127.246094 360.058594 C 126.539062 360.011719 102.949219 353.53125 74.824219 345.660156 Z M 160.675781 296.1875 C 178.351562 291.273438 193.0625 286.847656 193.371094 286.351562 C 193.675781 285.855469 195.789062 264.253906 198.0625 238.347656 C 200.335938 212.441406 202.382812 190.566406 202.609375 189.738281 C 203 188.320312 199.992188 188.234375 148.113281 188.234375 L 93.203125 188.234375 L 95.539062 163.523438 C 96.824219 149.933594 97.910156 138.777344 97.945312 138.734375 C 97.984375 138.691406 106.042969 138.433594 115.855469 138.164062 C 131.945312 137.71875 165.125 139.003906 166.234375 140.113281 C 166.648438 140.527344 169.378906 167.285156 169.378906 170.9375 C 169.378906 172.738281 169.621094 172.765625 186.039062 172.765625 L 202.695312 172.765625 L 202.304688 169.109375 C 202.089844 167.101562 200.675781 151.535156 199.167969 134.515625 L 196.425781 103.574219 L 132.175781 103.351562 C 81.058594 103.175781 67.921875 103.351562 67.914062 104.210938 C 67.910156 104.804688 67.539062 108.578125 67.082031 112.597656 C 65.984375 122.320312 57.605469 216.269531 57.605469 218.867188 L 57.605469 220.898438 L 166.949219 220.898438 L 166.460938 224.121094 C 166.195312 225.894531 165.34375 234.886719 164.574219 244.105469 C 163.800781 253.324219 162.921875 261.105469 162.621094 261.394531 C 161.820312 262.164062 129.65625 270.753906 127.652344 270.734375 C 126.71875 270.726562 118.414062 268.652344 109.191406 266.128906 L 92.425781 261.542969 L 91.8125 254.328125 C 91.472656 250.359375 90.960938 244.695312 90.667969 241.742188 L 90.140625 236.367188 L 57.605469 236.367188 L 57.640625 239.59375 C 57.707031 245.621094 61.617188 286.222656 62.1875 286.789062 C 62.84375 287.445312 125.324219 305.003906 127.246094 305.074219 C 127.957031 305.097656 143 301.101562 160.675781 296.1875 Z M 160.675781 296.1875 "/>
<path style=" stroke:none;fill-rule:nonzero;fill:rgb(89.411765%,63.137255%,14.901961%);fill-opacity:1;" d="M 74.824219 345.660156 L 23.695312 331.347656 L 12.316406 204.136719 C 6.058594 134.171875 0.921875 75.476562 0.898438 73.703125 L 0.859375 70.480469 L 255.355469 70.480469 L 255.371094 72.414062 C 255.394531 75.113281 233.015625 327.503906 232.558594 329.683594 C 232.230469 331.25 226.0625 333.15625 180.363281 345.804688 C 151.859375 353.695312 127.957031 360.109375 127.246094 360.058594 C 126.539062 360.011719 102.949219 353.53125 74.824219 345.660156 Z M 170.179688 326.511719 C 192.671875 320.308594 211.5 314.796875 212.015625 314.261719 C 212.820312 313.4375 232.246094 100.59375 232.167969 93.472656 L 232.140625 91.109375 L 128.109375 91.109375 L 128.109375 103.144531 L 98.015625 103.144531 C 74.519531 103.144531 67.921875 103.378906 67.914062 104.21875 C 67.910156 104.808594 67.539062 108.578125 67.082031 112.597656 C 65.984375 122.320312 57.605469 216.269531 57.605469 218.867188 L 57.605469 220.898438 L 128.109375 220.898438 L 128.109375 245.824219 C 128.109375 265.199219 127.867188 270.746094 127.03125 270.734375 C 126.441406 270.726562 118.414062 268.652344 109.191406 266.128906 L 92.425781 261.542969 L 91.8125 254.328125 C 91.472656 250.359375 90.960938 244.695312 90.667969 241.742188 L 90.140625 236.367188 L 57.605469 236.367188 L 57.640625 239.59375 C 57.746094 248.8125 61.734375 286.445312 62.667969 287.023438 C 63.238281 287.375 78.195312 291.671875 95.90625 296.570312 L 128.109375 305.476562 L 128.109375 321.636719 C 128.109375 330.523438 128.371094 337.792969 128.695312 337.792969 C 129.019531 337.792969 147.6875 332.714844 170.179688 326.511719 Z M 95.449219 163.753906 C 96.683594 150.292969 97.863281 139.121094 98.070312 138.9375 C 98.277344 138.75 105.117188 138.414062 113.277344 138.1875 L 128.109375 137.777344 L 128.109375 188.234375 L 93.203125 188.234375 Z M 95.449219 163.753906 "/>
<path style=" stroke:none;fill-rule:nonzero;fill:rgb(5.490196%,5.490196%,5.882353%);fill-opacity:1;" d="M 81.679688 39.96875 L 81.679688 31.800781 L 104.894531 31.800781 L 104.894531 0 L 121.230469 0 L 121.230469 48.132812 L 81.679688 48.132812 Z M 128.96875 41.6875 L 128.96875 35.242188 L 139.714844 35.242188 C 145.625 35.242188 150.460938 35.023438 150.460938 34.753906 C 150.460938 34.488281 145.625 29.03125 139.714844 22.625 L 128.96875 10.980469 L 128.96875 0 L 173.675781 0 L 173.675781 12.839844 L 163.179688 13.082031 L 152.6875 13.324219 L 163.613281 25.082031 L 174.535156 36.84375 L 174.535156 48.132812 L 128.96875 48.132812 Z M 128.96875 41.6875 "/>
</g>
</svg>
