<?xml version="1.0" encoding="UTF-8"?>
<svg xmlns="http://www.w3.org/2000/svg" xmlns:xlink="http://www.w3.org/1999/xlink" width="256pt" height="256pt" viewBox="0 0 256 256" version="1.1">
<g id="surface1">
<path style="fill-rule:nonzero;fill:rgb(100%,100%,100%);fill-opacity:1;stroke-width:1;stroke-linecap:butt;stroke-linejoin:miter;stroke:rgb(0%,0%,0%);stroke-opacity:1;stroke-miterlimit:4;" d="M 500 250 C 500 111.930847 388.069153 0 250 0 C 111.930847 0 0 111.930847 0 250 C 0 388.069153 111.930847 500 250 500 C 388.069153 500 500 388.069153 500 250 Z M 500 250 " transform="matrix(0.512,0,0,0.512,0,0)"/>
<path style=" stroke:none;fill-rule:nonzero;fill:rgb(32.54902%,50.980392%,63.137255%);fill-opacity:1;" d="M 104.792969 176.339844 C 104.792969 176.339844 98.035156 180.269531 109.601562 181.597656 C 123.613281 183.195312 130.777344 182.96875 146.21875 180.042969 C 146.21875 180.042969 150.277344 182.589844 155.949219 184.796875 C 121.332031 199.632812 77.601562 183.9375 104.792969 176.339844 "/>
<path style=" stroke:none;fill-rule:nonzero;fill:rgb(32.54902%,50.980392%,63.137255%);fill-opacity:1;" d="M 100.5625 156.976562 C 100.5625 156.976562 92.984375 162.589844 104.558594 163.785156 C 119.527344 165.328125 131.347656 165.457031 151.804688 161.515625 C 151.804688 161.515625 154.632812 164.386719 159.082031 165.953125 C 117.226562 178.191406 70.609375 166.917969 100.5625 156.976562 "/>
<path style=" stroke:none;fill-rule:nonzero;fill:rgb(90.588235%,43.529412%,0%);fill-opacity:1;" d="M 136.222656 124.136719 C 144.753906 133.957031 133.984375 142.792969 133.984375 142.792969 C 133.984375 142.792969 155.640625 131.613281 145.695312 117.613281 C 136.40625 104.554688 129.28125 98.066406 167.847656 75.699219 C 167.847656 75.699219 107.308594 90.820312 136.222656 124.136719 "/>
<path style=" stroke:none;fill-rule:nonzero;fill:rgb(32.54902%,50.980392%,63.137255%);fill-opacity:1;" d="M 182.007812 190.660156 C 182.007812 190.660156 187.007812 194.777344 176.5 197.96875 C 156.519531 204.019531 93.335938 205.847656 75.78125 198.207031 C 69.472656 195.464844 81.304688 191.652344 85.027344 190.855469 C 88.910156 190.011719 91.128906 190.167969 91.128906 190.167969 C 84.109375 185.226562 45.773438 199.875 71.652344 204.070312 C 142.234375 215.515625 200.316406 198.917969 182.007812 190.660156 "/>
<path style=" stroke:none;fill-rule:nonzero;fill:rgb(32.54902%,50.980392%,63.137255%);fill-opacity:1;" d="M 108.042969 136.917969 C 108.042969 136.917969 75.902344 144.550781 96.660156 147.324219 C 105.425781 148.496094 122.898438 148.230469 139.171875 146.867188 C 152.472656 145.746094 165.828125 143.359375 165.828125 143.359375 C 165.828125 143.359375 161.140625 145.371094 157.746094 147.6875 C 125.109375 156.269531 62.0625 152.277344 80.210938 143.496094 C 95.5625 136.078125 108.042969 136.917969 108.042969 136.917969 "/>
<path style=" stroke:none;fill-rule:nonzero;fill:rgb(32.54902%,50.980392%,63.137255%);fill-opacity:1;" d="M 165.695312 169.144531 C 198.875 151.90625 183.535156 135.335938 172.828125 137.570312 C 170.203125 138.117188 169.03125 138.589844 169.03125 138.589844 C 169.03125 138.589844 170.007812 137.0625 171.867188 136.402344 C 193.050781 128.957031 209.339844 158.367188 165.03125 170.015625 C 165.03125 170.015625 165.542969 169.554688 165.695312 169.144531 "/>
<path style=" stroke:none;fill-rule:nonzero;fill:rgb(90.588235%,43.529412%,0%);fill-opacity:1;" d="M 145.695312 39.582031 C 145.695312 39.582031 164.066406 57.964844 128.265625 86.226562 C 99.558594 108.898438 121.722656 121.824219 128.253906 136.59375 C 111.496094 121.476562 99.199219 108.164062 107.449219 95.777344 C 119.558594 77.59375 153.109375 68.777344 145.695312 39.582031 "/>
<path style=" stroke:none;fill-rule:nonzero;fill:rgb(32.54902%,50.980392%,63.137255%);fill-opacity:1;" d="M 111.304688 215.859375 C 143.148438 217.898438 192.050781 214.730469 193.210938 199.660156 C 193.210938 199.660156 190.984375 205.375 166.890625 209.910156 C 139.710938 215.027344 106.1875 214.429688 86.300781 211.148438 C 86.304688 211.148438 90.371094 214.519531 111.304688 215.859375 "/>
</g>
</svg>
