<?xml version="1.0" encoding="UTF-8"?>
<svg xmlns="http://www.w3.org/2000/svg" xmlns:xlink="http://www.w3.org/1999/xlink" width="256pt" height="256pt" viewBox="0 0 256 256" version="1.1">
<g id="surface1">
<path style=" stroke:none;fill-rule:nonzero;fill:rgb(34.901961%,58.823529%,21.176471%);fill-opacity:1;" d="M 127.199219 0.695312 L 134.03125 13.527344 C 135.566406 15.894531 137.230469 17.992188 139.191406 19.945312 C 144.910156 25.664062 150.34375 31.65625 155.222656 38.070312 C 166.800781 53.273438 174.609375 70.152344 180.183594 88.40625 C 183.527344 99.558594 185.34375 111 185.480469 122.566406 C 186.039062 157.152344 174.183594 186.847656 150.28125 211.527344 C 146.375 215.433594 142.199219 219.046875 137.71875 222.265625 C 135.351562 222.265625 134.230469 220.449219 133.257812 218.777344 C 131.441406 215.710938 130.328125 212.214844 129.769531 208.734375 C 128.929688 204.550781 128.375 200.367188 128.648438 196.046875 L 128.648438 194.097656 C 128.457031 193.679688 126.367188 1.679688 127.199219 0.695312 Z M 127.199219 0.695312 "/>
<path style=" stroke:none;fill-rule:nonzero;fill:rgb(42.352941%,67.45098%,28.235294%);fill-opacity:1;" d="M 127.199219 0.273438 C 126.921875 -0.289062 126.640625 0.136719 126.359375 0.40625 C 126.496094 3.207031 125.519531 5.703125 123.992188 8.089844 C 122.3125 10.457031 120.089844 12.273438 117.855469 14.222656 C 105.457031 24.960938 95.695312 37.929688 87.878906 52.433594 C 77.480469 71.953125 72.121094 92.871094 70.601562 114.894531 C 69.902344 122.839844 73.113281 150.871094 75.617188 158.960938 C 82.449219 180.433594 94.71875 198.425781 110.617188 214.039062 C 114.519531 217.800781 118.695312 221.289062 123.015625 224.640625 C 124.273438 224.640625 124.40625 223.519531 124.695312 222.6875 C 125.246094 220.90625 125.667969 219.089844 125.953125 217.246094 L 128.753906 196.335938 Z M 127.199219 0.273438 "/>
<path style=" stroke:none;fill-rule:nonzero;fill:rgb(76.078431%,74.901961%,74.901961%);fill-opacity:1;" d="M 134.03125 230.761719 C 134.3125 227.558594 135.847656 224.902344 137.519531 222.257812 C 135.839844 221.558594 134.59375 220.175781 133.617188 218.632812 C 132.777344 217.238281 132.078125 215.566406 131.535156 214.03125 C 129.585938 208.175781 129.167969 202.03125 128.609375 196.046875 L 128.609375 192.425781 C 127.910156 192.984375 127.769531 197.71875 127.769531 198.425781 C 127.359375 204.75 126.523438 211.039062 125.257812 217.246094 C 124.839844 219.761719 124.558594 222.265625 123.015625 224.496094 C 123.015625 224.777344 123.015625 225.054688 123.152344 225.472656 C 125.664062 232.863281 126.351562 240.390625 126.777344 248.0625 L 126.777344 250.863281 C 126.777344 254.207031 126.640625 253.503906 129.414062 254.625 C 130.535156 255.039062 131.785156 255.183594 132.902344 256.015625 C 133.742188 256.015625 133.878906 255.320312 133.878906 254.761719 L 133.464844 250.160156 L 133.464844 237.328125 C 133.328125 235.089844 133.742188 232.863281 134.023438 230.769531 Z M 134.03125 230.761719 "/>
</g>
</svg>
