<?xml version="1.0" encoding="UTF-8"?>
<svg xmlns="http://www.w3.org/2000/svg" xmlns:xlink="http://www.w3.org/1999/xlink" width="256pt" height="256pt" viewBox="0 0 256 256" version="1.1">
<g id="surface1">
<path style=" stroke:none;fill-rule:nonzero;fill:rgb(94.509804%,35.686275%,42.352941%);fill-opacity:1;" d="M 176.640625 209.921875 L 79.359375 209.921875 C 60.980469 209.921875 46.078125 195.019531 46.078125 176.640625 L 46.078125 79.359375 C 46.078125 60.980469 60.980469 46.078125 79.359375 46.078125 L 176.640625 46.078125 C 195.019531 46.078125 209.921875 60.980469 209.921875 79.359375 L 209.921875 176.640625 C 209.921875 195.019531 195.019531 209.921875 176.640625 209.921875 Z M 176.640625 209.921875 "/>
<path style=" stroke:none;fill-rule:nonzero;fill:rgb(12.156863%,12.941176%,16.862745%);fill-opacity:1;" d="M 170.238281 199.679688 L 85.761719 199.679688 C 69.527344 199.679688 56.320312 186.472656 56.320312 170.238281 L 56.320312 85.761719 C 56.320312 69.527344 69.527344 56.320312 85.761719 56.320312 L 170.238281 56.320312 C 171.144531 56.320312 172.035156 56.375 172.917969 56.457031 C 173.621094 56.519531 174.140625 57.144531 174.074219 57.847656 C 174.011719 58.550781 173.414062 59.066406 172.683594 59.003906 C 171.875 58.929688 171.0625 58.878906 170.238281 58.878906 L 85.761719 58.878906 C 70.9375 58.878906 58.878906 70.9375 58.878906 85.761719 L 58.878906 170.238281 C 58.878906 185.0625 70.9375 197.121094 85.761719 197.121094 L 170.238281 197.121094 C 185.0625 197.121094 197.121094 185.0625 197.121094 170.238281 L 197.121094 126.71875 C 197.121094 126.011719 197.695312 125.441406 198.398438 125.441406 C 199.105469 125.441406 199.679688 126.011719 199.679688 126.71875 L 199.679688 170.238281 C 199.679688 186.472656 186.472656 199.679688 170.238281 199.679688 Z M 198.398438 102.398438 C 197.695312 102.398438 197.121094 101.828125 197.121094 101.121094 L 197.121094 96 C 197.121094 95.292969 197.695312 94.71875 198.398438 94.71875 C 199.105469 94.71875 199.679688 95.292969 199.679688 96 L 199.679688 101.121094 C 199.679688 101.828125 199.105469 102.398438 198.398438 102.398438 Z M 198.398438 120.320312 C 197.695312 120.320312 197.121094 119.746094 197.121094 119.039062 L 197.121094 108.800781 C 197.121094 108.09375 197.695312 107.519531 198.398438 107.519531 C 199.105469 107.519531 199.679688 108.09375 199.679688 108.800781 L 199.679688 119.039062 C 199.679688 119.746094 199.105469 120.320312 198.398438 120.320312 Z M 198.398438 120.320312 "/>
<path style=" stroke:none;fill-rule:nonzero;fill:rgb(12.156863%,12.941176%,16.862745%);fill-opacity:1;" d="M 176.640625 212.480469 L 79.359375 212.480469 C 59.597656 212.480469 43.519531 196.402344 43.519531 176.640625 L 43.519531 79.359375 C 43.519531 59.597656 59.597656 43.519531 79.359375 43.519531 L 176.640625 43.519531 C 196.402344 43.519531 212.480469 59.597656 212.480469 79.359375 L 212.480469 176.640625 C 212.480469 196.402344 196.402344 212.480469 176.640625 212.480469 Z M 79.359375 48.640625 C 62.421875 48.640625 48.640625 62.421875 48.640625 79.359375 L 48.640625 176.640625 C 48.640625 193.578125 62.421875 207.359375 79.359375 207.359375 L 176.640625 207.359375 C 193.578125 207.359375 207.359375 193.578125 207.359375 176.640625 L 207.359375 79.359375 C 207.359375 62.421875 193.578125 48.640625 176.640625 48.640625 Z M 79.359375 48.640625 "/>
<path style=" stroke:none;fill-rule:nonzero;fill:rgb(99.607843%,99.215686%,93.72549%);fill-opacity:1;" d="M 158.609375 123.941406 C 150.398438 125.367188 139.53125 126.15625 128 126.15625 C 116.472656 126.15625 105.601562 125.367188 97.394531 123.941406 C 88.195312 122.34375 83.511719 120.1875 82.289062 116.941406 C 82.070312 117.523438 81.921875 118.128906 81.921875 118.785156 L 81.921875 137.214844 C 81.921875 141.53125 86.550781 144.175781 97.394531 146.0625 C 105.601562 147.488281 116.472656 148.273438 128 148.273438 C 139.53125 148.273438 150.398438 147.488281 158.613281 146.0625 C 169.453125 144.175781 174.078125 141.53125 174.078125 137.214844 L 174.078125 118.785156 C 174.078125 118.128906 173.9375 117.523438 173.71875 116.941406 C 172.492188 120.1875 167.804688 122.34375 158.609375 123.941406 "/>
<path style=" stroke:none;fill-rule:nonzero;fill:rgb(99.607843%,99.215686%,93.72549%);fill-opacity:1;" d="M 158.609375 153.433594 C 150.398438 154.859375 139.53125 155.648438 128 155.648438 C 116.472656 155.648438 105.601562 154.859375 97.394531 153.433594 C 88.195312 151.832031 83.511719 149.679688 82.289062 146.433594 C 82.070312 147.015625 81.921875 147.621094 81.921875 148.273438 L 81.921875 166.707031 C 81.921875 171.019531 86.550781 173.667969 97.394531 175.550781 C 105.601562 176.976562 116.472656 177.765625 128 177.765625 C 139.53125 177.765625 150.398438 176.976562 158.613281 175.550781 C 169.453125 173.667969 174.078125 171.019531 174.078125 166.707031 L 174.078125 148.273438 C 174.078125 147.621094 173.9375 147.015625 173.71875 146.433594 C 172.492188 149.675781 167.804688 151.832031 158.609375 153.433594 "/>
<path style=" stroke:none;fill-rule:nonzero;fill:rgb(99.607843%,99.215686%,93.72549%);fill-opacity:1;" d="M 158.613281 80.449219 C 150.398438 79.019531 139.53125 78.234375 128 78.234375 C 116.472656 78.234375 105.601562 79.019531 97.394531 80.449219 C 86.550781 82.332031 81.921875 84.980469 81.921875 89.292969 L 81.921875 107.726562 C 81.921875 112.039062 86.550781 114.683594 97.394531 116.570312 C 105.601562 118 116.472656 118.785156 128 118.785156 C 139.53125 118.785156 150.398438 118 158.613281 116.570312 C 169.453125 114.683594 174.078125 112.039062 174.078125 107.726562 L 174.078125 89.292969 C 174.078125 84.980469 169.453125 82.332031 158.613281 80.449219 Z M 128 81.921875 C 151.417969 81.921875 170.394531 85.222656 170.394531 89.292969 C 170.394531 93.363281 151.417969 96.664062 128 96.664062 C 104.589844 96.664062 85.605469 93.363281 85.605469 89.292969 C 85.605469 85.222656 104.589844 81.921875 128 81.921875 Z M 128 81.921875 "/>
<path style=" stroke:none;fill-rule:nonzero;fill:rgb(94.509804%,35.686275%,42.352941%);fill-opacity:1;" d="M 143.960938 106.285156 C 142.808594 106.285156 141.835938 105.390625 141.757812 104.222656 C 141.675781 103.003906 142.59375 101.945312 143.816406 101.863281 C 149.492188 101.476562 154.585938 100.894531 158.957031 100.132812 C 160.507812 99.867188 162.625 99.503906 164.789062 98.945312 C 165.953125 98.636719 167.175781 99.347656 167.484375 100.535156 C 167.789062 101.714844 167.074219 102.921875 165.894531 103.226562 C 163.554688 103.832031 161.332031 104.210938 159.710938 104.492188 C 155.191406 105.28125 149.945312 105.882812 144.113281 106.277344 C 144.0625 106.28125 144.011719 106.285156 143.960938 106.285156 Z M 143.960938 106.285156 "/>
<path style=" stroke:none;fill-rule:nonzero;fill:rgb(94.509804%,35.686275%,42.352941%);fill-opacity:1;" d="M 143.960938 135.773438 C 142.808594 135.773438 141.835938 134.882812 141.757812 133.714844 C 141.675781 132.496094 142.59375 131.4375 143.816406 131.355469 C 149.476562 130.96875 154.574219 130.386719 158.957031 129.625 C 160.507812 129.359375 162.625 128.992188 164.789062 128.433594 C 165.953125 128.125 167.175781 128.835938 167.484375 130.023438 C 167.789062 131.207031 167.074219 132.414062 165.894531 132.71875 C 163.554688 133.320312 161.332031 133.703125 159.710938 133.984375 C 155.179688 134.773438 149.933594 135.371094 144.113281 135.769531 C 144.0625 135.773438 144.011719 135.773438 143.960938 135.773438 Z M 143.960938 135.773438 "/>
<path style=" stroke:none;fill-rule:nonzero;fill:rgb(94.509804%,35.686275%,42.352941%);fill-opacity:1;" d="M 143.960938 165.261719 C 142.808594 165.261719 141.835938 164.367188 141.757812 163.199219 C 141.675781 161.980469 142.59375 160.925781 143.816406 160.84375 C 149.476562 160.457031 154.570312 159.878906 158.957031 159.113281 C 160.507812 158.847656 162.625 158.480469 164.789062 157.925781 C 165.953125 157.617188 167.175781 158.328125 167.484375 159.511719 C 167.789062 160.695312 167.074219 161.902344 165.894531 162.207031 C 163.554688 162.8125 161.332031 163.191406 159.710938 163.472656 C 155.175781 164.261719 149.929688 164.863281 144.113281 165.257812 C 144.0625 165.261719 144.011719 165.261719 143.960938 165.261719 Z M 143.960938 165.261719 "/>
</g>
</svg>
