<?xml version="1.0" encoding="UTF-8"?>
<svg xmlns="http://www.w3.org/2000/svg" xmlns:xlink="http://www.w3.org/1999/xlink" width="256pt" height="65pt" viewBox="0 0 256 65" version="1.1">
<g id="surface1">
<path style=" stroke:none;fill-rule:nonzero;fill:rgb(37.254902%,72.156863%,19.607843%);fill-opacity:1;" d="M 84.355469 45.195312 C 83.570312 44.777344 82.964844 43.882812 82.964844 42.6875 C 82.964844 41.074219 84.234375 39.769531 85.933594 39.769531 C 86.535156 39.769531 87.082031 39.945312 87.5 40.183594 C 90.585938 42.214844 93.792969 43.230469 96.691406 43.230469 C 99.835938 43.230469 101.648438 41.914062 101.648438 39.824219 L 101.648438 39.707031 C 101.648438 37.257812 98.265625 36.421875 94.511719 35.289062 C 89.800781 33.976562 84.539062 32.066406 84.539062 26.039062 L 84.539062 25.917969 C 84.539062 19.945312 89.558594 16.304688 95.90625 16.304688 C 99.292969 16.304688 102.859375 17.261719 105.941406 18.871094 C 106.972656 19.410156 107.695312 20.367188 107.695312 21.617188 C 107.695312 23.289062 106.367188 24.546875 104.671875 24.546875 C 104.066406 24.546875 103.703125 24.425781 103.222656 24.1875 C 100.621094 22.871094 97.960938 22.035156 95.726562 22.035156 C 92.882812 22.035156 91.25 23.351562 91.25 25.140625 L 91.25 25.257812 C 91.25 27.585938 94.695312 28.539062 98.445312 29.738281 C 103.101562 31.171875 108.359375 33.257812 108.359375 38.929688 L 108.359375 39.050781 C 108.359375 45.675781 103.15625 48.957031 96.507812 48.957031 C 92.460938 48.957031 88.046875 47.707031 84.355469 45.195312 "/>
<path style=" stroke:none;fill-rule:nonzero;fill:rgb(37.254902%,72.156863%,19.607843%);fill-opacity:1;" d="M 136.699219 32.660156 L 136.699219 32.539062 C 136.699219 26.453125 132.527344 22.453125 127.574219 22.453125 C 122.613281 22.453125 118.261719 26.515625 118.261719 32.539062 L 118.261719 32.660156 C 118.261719 38.691406 122.613281 42.753906 127.574219 42.753906 C 132.589844 42.753906 136.699219 38.871094 136.699219 32.660156 M 111.125 19.945312 C 111.125 17.917969 112.695312 16.304688 114.757812 16.304688 C 116.808594 16.304688 118.441406 17.917969 118.441406 19.945312 L 118.441406 22.097656 C 120.800781 18.816406 124.125 16.1875 129.324219 16.1875 C 136.820312 16.1875 144.136719 22.035156 144.136719 32.539062 L 144.136719 32.660156 C 144.136719 43.109375 136.882812 49.019531 129.324219 49.019531 C 124.007812 49.019531 120.679688 46.390625 118.441406 43.46875 L 118.441406 54.625 C 118.441406 56.664062 116.808594 58.214844 114.757812 58.214844 C 112.761719 58.214844 111.125 56.664062 111.125 54.625 L 111.125 19.945312 "/>
<path style=" stroke:none;fill-rule:nonzero;fill:rgb(37.254902%,72.156863%,19.607843%);fill-opacity:1;" d="M 146.910156 19.949219 C 146.910156 17.921875 148.476562 16.308594 150.53125 16.308594 C 152.59375 16.308594 154.222656 17.921875 154.222656 19.949219 L 154.222656 21.6875 C 154.585938 18.980469 159.058594 16.308594 162.261719 16.308594 C 164.558594 16.308594 165.890625 17.800781 165.890625 19.886719 C 165.890625 21.796875 164.621094 23.054688 162.988281 23.351562 C 157.789062 24.246094 154.222656 28.738281 154.222656 34.953125 L 154.222656 45.367188 C 154.222656 47.339844 152.59375 48.949219 150.53125 48.949219 C 148.539062 48.949219 146.910156 47.398438 146.910156 45.367188 L 146.910156 19.949219 "/>
<path style=" stroke:none;fill-rule:nonzero;fill:rgb(37.254902%,72.156863%,19.607843%);fill-opacity:1;" d="M 168.65625 19.964844 C 168.65625 17.933594 170.234375 16.320312 172.285156 16.320312 C 174.34375 16.320312 175.976562 17.933594 175.976562 19.964844 L 175.976562 45.375 C 175.976562 47.402344 174.34375 48.949219 172.285156 48.949219 C 170.289062 48.949219 168.65625 47.402344 168.65625 45.375 L 168.65625 19.964844 "/>
<path style=" stroke:none;fill-rule:nonzero;fill:rgb(37.254902%,72.156863%,19.607843%);fill-opacity:1;" d="M 179.664062 19.976562 C 179.664062 17.949219 181.234375 16.335938 183.289062 16.335938 C 185.34375 16.335938 186.976562 17.949219 186.976562 19.976562 L 186.976562 21.460938 C 189.035156 18.535156 191.992188 16.320312 196.949219 16.320312 C 204.144531 16.320312 208.320312 21.097656 208.320312 28.378906 L 208.320312 45.371094 C 208.320312 47.398438 206.746094 48.953125 204.691406 48.953125 C 202.636719 48.953125 201.003906 47.398438 201.003906 45.371094 L 201.003906 30.589844 C 201.003906 25.695312 198.523438 22.886719 194.171875 22.886719 C 189.941406 22.886719 186.976562 25.8125 186.976562 30.710938 L 186.976562 45.371094 C 186.976562 47.398438 185.34375 48.953125 183.289062 48.953125 C 181.292969 48.953125 179.664062 47.398438 179.664062 45.371094 L 179.664062 19.976562 "/>
<path style=" stroke:none;fill-rule:nonzero;fill:rgb(37.254902%,72.156863%,19.607843%);fill-opacity:1;" d="M 227.65625 42.6875 C 222.632812 42.6875 218.527344 38.808594 218.527344 32.597656 L 218.527344 32.480469 C 218.527344 26.390625 222.695312 22.390625 227.65625 22.390625 C 232.613281 22.390625 236.964844 26.453125 236.964844 32.480469 L 236.964844 32.597656 C 236.964844 38.628906 232.613281 42.6875 227.65625 42.6875 M 240.464844 16.242188 C 238.414062 16.242188 236.78125 17.859375 236.78125 19.882812 L 236.78125 22.03125 C 234.421875 18.75 231.097656 16.125 225.902344 16.125 C 218.402344 16.125 211.089844 21.972656 211.089844 32.480469 L 211.089844 32.597656 C 211.089844 43.046875 218.34375 48.953125 225.902344 48.953125 C 231.191406 48.953125 234.507812 46.355469 236.746094 43.449219 C 236.382812 49.125 232.863281 52.121094 226.6875 52.121094 C 223.003906 52.121094 219.796875 51.222656 216.890625 49.609375 C 216.53125 49.433594 216.113281 49.316406 215.566406 49.316406 C 213.875 49.316406 212.480469 50.691406 212.480469 52.296875 C 212.480469 53.671875 213.265625 54.6875 214.539062 55.164062 C 218.402344 57.015625 222.390625 57.972656 226.867188 57.972656 C 232.613281 57.972656 237.089844 56.597656 239.992188 53.730469 C 242.644531 51.101562 244.097656 47.167969 244.097656 41.851562 L 244.097656 19.882812 C 244.097656 17.859375 242.523438 16.242188 240.464844 16.242188 "/>
<path style=" stroke:none;fill-rule:nonzero;fill:rgb(37.254902%,72.156863%,19.607843%);fill-opacity:1;" d="M 176.003906 7.621094 C 176.003906 9.628906 174.351562 11.261719 172.316406 11.261719 C 170.277344 11.261719 168.628906 9.628906 168.628906 7.621094 C 168.628906 5.609375 170.277344 3.980469 172.316406 3.980469 C 174.351562 3.980469 176.003906 5.609375 176.003906 7.621094 "/>
<path style=" stroke:none;fill-rule:nonzero;fill:rgb(37.254902%,72.156863%,19.607843%);fill-opacity:1;" d="M 59.8125 46.792969 C 51.703125 57.464844 34.378906 53.863281 23.273438 54.378906 C 23.273438 54.378906 21.304688 54.488281 19.324219 54.808594 C 19.324219 54.808594 20.074219 54.496094 21.027344 54.167969 C 28.828125 51.503906 32.515625 50.96875 37.257812 48.566406 C 46.164062 44.0625 55.027344 34.25 56.828125 24.054688 C 53.441406 33.859375 43.128906 42.296875 33.742188 45.722656 C 27.316406 48.066406 15.695312 50.34375 15.695312 50.34375 C 15.699219 50.351562 15.230469 50.105469 15.226562 50.097656 C 7.324219 46.300781 7.09375 29.402344 21.445312 23.953125 C 27.738281 21.5625 33.757812 22.875 40.5625 21.277344 C 47.816406 19.574219 56.21875 14.203125 59.636719 7.183594 C 63.464844 18.398438 68.066406 35.941406 59.8125 46.792969 Z M 59.953125 3.707031 C 58.988281 5.972656 57.808594 8.015625 56.453125 9.839844 C 50.472656 3.78125 42.128906 0.0078125 32.902344 0.0078125 C 14.757812 0.0078125 0 14.582031 0 32.496094 C 0 41.882812 4.058594 50.355469 10.53125 56.289062 L 11.25 56.921875 C 10.046875 55.953125 9.863281 54.207031 10.839844 53.015625 C 11.820312 51.828125 13.589844 51.644531 14.792969 52.605469 C 16 53.574219 16.183594 55.320312 15.207031 56.511719 C 14.230469 57.703125 12.460938 57.886719 11.253906 56.921875 L 11.746094 57.351562 C 17.46875 62.113281 24.847656 64.984375 32.902344 64.984375 C 50.246094 64.984375 64.488281 51.660156 65.707031 34.839844 C 66.609375 26.601562 64.144531 16.144531 59.953125 3.707031 "/>
<path style=" stroke:none;fill-rule:nonzero;fill:rgb(37.254902%,72.156863%,19.607843%);fill-opacity:1;" d="M 252.664062 18.515625 L 251.515625 18.515625 L 251.515625 20.019531 L 252.664062 20.019531 C 253.035156 20.019531 253.441406 19.722656 253.441406 19.285156 C 253.441406 18.8125 253.035156 18.515625 252.664062 18.515625 Z M 253.371094 22.238281 L 252.257812 20.558594 L 251.515625 20.558594 L 251.515625 22.238281 L 250.914062 22.238281 L 250.914062 17.992188 L 252.664062 17.992188 C 253.390625 17.992188 254.0625 18.5 254.0625 19.285156 C 254.0625 20.230469 253.210938 20.542969 252.964844 20.542969 L 254.113281 22.238281 Z M 252.34375 16.960938 C 250.578125 16.960938 249.160156 18.359375 249.160156 20.109375 C 249.160156 21.835938 250.578125 23.25 252.34375 23.25 C 254.09375 23.25 255.527344 21.835938 255.527344 20.109375 C 255.527344 18.359375 254.09375 16.960938 252.34375 16.960938 Z M 252.34375 23.808594 C 250.273438 23.808594 248.59375 22.152344 248.59375 20.109375 C 248.59375 18.046875 250.273438 16.402344 252.34375 16.402344 C 254.433594 16.402344 256.097656 18.046875 256.097656 20.109375 C 256.097656 22.152344 254.433594 23.808594 252.34375 23.808594 "/>
</g>
</svg>
