<?xml version="1.0" encoding="UTF-8"?>
<svg xmlns="http://www.w3.org/2000/svg" xmlns:xlink="http://www.w3.org/1999/xlink" width="256pt" height="256pt" viewBox="0 0 256 256" version="1.1">
<g id="surface1">
<path style=" stroke:none;fill-rule:nonzero;fill:rgb(0%,0%,0%);fill-opacity:1;" d="M 74.441406 113.441406 C 66.628906 113.765625 62.21875 121.808594 62.21875 131.519531 C 62.144531 141.382812 66.703125 149.023438 74.363281 149.167969 C 82.308594 149.324219 87.035156 141.613281 87.035156 131.007812 C 87.035156 121.117188 82.460938 113.105469 74.441406 113.441406 Z M 74.441406 113.441406 "/>
<path style=" stroke:none;fill-rule:nonzero;fill:rgb(0%,0%,0%);fill-opacity:1;" d="M 4.882812 20.1875 L 4.882812 235.257812 L 156.132812 255.964844 L 156.132812 233.867188 C 156.472656 233.890625 156.804688 233.917969 157.148438 233.917969 L 234.644531 233.917969 C 243.710938 233.917969 251.082031 226.539062 251.082031 217.480469 L 251.082031 37.832031 C 251.082031 28.769531 243.710938 21.394531 234.644531 21.394531 L 157.148438 21.394531 C 156.804688 21.394531 156.472656 21.429688 156.132812 21.449219 L 156.132812 0 Z M 27.582031 156.960938 C 22.664062 156.789062 17.894531 155.199219 15.539062 153.632812 L 17.460938 144.738281 C 20.015625 146.269531 23.992188 147.839844 28.164062 147.921875 C 32.722656 148.003906 35.164062 145.917969 35.164062 142.6875 C 35.164062 139.601562 33.046875 137.839844 27.777344 135.738281 C 20.644531 132.976562 16.09375 128.625 16.09375 121.675781 C 16.09375 113.523438 22.09375 106.941406 32.328125 106.347656 C 37.359375 106.058594 41.128906 107.03125 43.851562 108.222656 L 41.535156 117.484375 C 39.710938 116.585938 36.492188 115.308594 32.132812 115.488281 C 27.835938 115.664062 25.78125 117.914062 25.78125 120.441406 C 25.78125 123.542969 28.226562 124.859375 33.910156 127.140625 C 41.871094 130.257812 45.703125 134.84375 45.703125 141.957031 C 45.703125 150.417969 39.773438 157.394531 27.582031 156.960938 Z M 96.710938 168.0625 C 88.941406 165.417969 82.617188 162.8125 75.65625 159.527344 C 74.515625 159.011719 73.296875 158.734375 72.085938 158.609375 C 60.828125 157.441406 50.699219 148.640625 50.699219 132.023438 C 50.699219 116.769531 59.820312 104.765625 74.742188 103.898438 C 90.867188 102.96875 100.089844 115.25 100.089844 130.363281 C 100.089844 142.929688 94.261719 151.667969 87.113281 154.722656 L 87.113281 155.042969 C 91.269531 156.375 95.972656 157.5 100.339844 158.542969 Z M 146.550781 160.277344 L 108.492188 158.984375 L 108.492188 102.867188 L 121.804688 102.121094 L 121.804688 148.550781 L 146.550781 148.96875 Z M 157.148438 30.789062 L 234.644531 30.789062 C 238.53125 30.789062 241.6875 33.949219 241.6875 37.835938 L 241.6875 217.480469 C 241.6875 221.363281 238.53125 224.523438 234.644531 224.523438 L 157.148438 224.523438 C 156.800781 224.523438 156.46875 224.476562 156.132812 224.421875 L 156.132812 174.5 L 163.175781 174.5 L 163.175781 169.355469 L 156.132812 169.355469 L 156.132812 156.535156 L 160.136719 156.535156 L 160.136719 151.398438 L 156.132812 151.398438 L 156.132812 123.996094 L 163.054688 123.996094 L 163.054688 118.855469 L 156.132812 118.855469 L 156.132812 91.746094 L 177.511719 91.746094 L 177.511719 86.605469 L 156.132812 86.605469 L 156.132812 30.894531 C 156.464844 30.84375 156.800781 30.789062 157.148438 30.789062 Z M 157.148438 30.789062 "/>
<path style=" stroke:none;fill-rule:nonzero;fill:rgb(0%,0%,0%);fill-opacity:1;" d="M 160.566406 102.484375 L 177.234375 102.484375 L 177.234375 107.625 L 160.566406 107.625 Z M 160.566406 102.484375 "/>
<path style=" stroke:none;fill-rule:nonzero;fill:rgb(0%,0%,0%);fill-opacity:1;" d="M 180.359375 102.484375 L 197.027344 102.484375 L 197.027344 107.625 L 180.359375 107.625 Z M 180.359375 102.484375 "/>
<path style=" stroke:none;fill-rule:nonzero;fill:rgb(0%,0%,0%);fill-opacity:1;" d="M 166.269531 118.855469 L 185.363281 118.855469 L 185.363281 123.996094 L 166.269531 123.996094 Z M 166.269531 118.855469 "/>
<path style=" stroke:none;fill-rule:nonzero;fill:rgb(0%,0%,0%);fill-opacity:1;" d="M 188.945312 118.855469 L 208.03125 118.855469 L 208.03125 123.996094 L 188.945312 123.996094 Z M 188.945312 118.855469 "/>
<path style=" stroke:none;fill-rule:nonzero;fill:rgb(0%,0%,0%);fill-opacity:1;" d="M 159.773438 135.539062 L 167.875 135.539062 L 167.875 140.683594 L 159.773438 140.683594 Z M 159.773438 135.539062 "/>
<path style=" stroke:none;fill-rule:nonzero;fill:rgb(0%,0%,0%);fill-opacity:1;" d="M 169.390625 135.539062 L 177.488281 135.539062 L 177.488281 140.683594 L 169.390625 140.683594 Z M 169.390625 135.539062 "/>
<path style=" stroke:none;fill-rule:nonzero;fill:rgb(0%,0%,0%);fill-opacity:1;" d="M 178.855469 135.539062 L 186.953125 135.539062 L 186.953125 140.683594 L 178.855469 140.683594 Z M 178.855469 135.539062 "/>
<path style=" stroke:none;fill-rule:nonzero;fill:rgb(0%,0%,0%);fill-opacity:1;" d="M 188.46875 135.539062 L 196.5625 135.539062 L 196.5625 140.683594 L 188.46875 140.683594 Z M 188.46875 135.539062 "/>
<path style=" stroke:none;fill-rule:nonzero;fill:rgb(0%,0%,0%);fill-opacity:1;" d="M 198.488281 135.539062 L 206.589844 135.539062 L 206.589844 140.683594 L 198.488281 140.683594 Z M 198.488281 135.539062 "/>
<path style=" stroke:none;fill-rule:nonzero;fill:rgb(0%,0%,0%);fill-opacity:1;" d="M 208.105469 135.539062 L 216.207031 135.539062 L 216.207031 140.683594 L 208.105469 140.683594 Z M 208.105469 135.539062 "/>
<path style=" stroke:none;fill-rule:nonzero;fill:rgb(0%,0%,0%);fill-opacity:1;" d="M 217.566406 135.539062 L 225.667969 135.539062 L 225.667969 140.683594 L 217.566406 140.683594 Z M 217.566406 135.539062 "/>
<path style=" stroke:none;fill-rule:nonzero;fill:rgb(0%,0%,0%);fill-opacity:1;" d="M 227.1875 135.539062 L 235.28125 135.539062 L 235.28125 140.683594 L 227.1875 140.683594 Z M 227.1875 135.539062 "/>
<path style=" stroke:none;fill-rule:nonzero;fill:rgb(0%,0%,0%);fill-opacity:1;" d="M 162.296875 151.394531 L 173.8125 151.394531 L 173.8125 156.539062 L 162.296875 156.539062 Z M 162.296875 151.394531 "/>
<path style=" stroke:none;fill-rule:nonzero;fill:rgb(0%,0%,0%);fill-opacity:1;" d="M 175.957031 151.394531 L 187.472656 151.394531 L 187.472656 156.539062 L 175.957031 156.539062 Z M 175.957031 151.394531 "/>
<path style=" stroke:none;fill-rule:nonzero;fill:rgb(0%,0%,0%);fill-opacity:1;" d="M 189.632812 151.394531 L 201.152344 151.394531 L 201.152344 156.539062 L 189.632812 156.539062 Z M 189.632812 151.394531 "/>
<path style=" stroke:none;fill-rule:nonzero;fill:rgb(0%,0%,0%);fill-opacity:1;" d="M 203.097656 151.394531 L 214.621094 151.394531 L 214.621094 156.539062 L 203.097656 156.539062 Z M 203.097656 151.394531 "/>
<path style=" stroke:none;fill-rule:nonzero;fill:rgb(0%,0%,0%);fill-opacity:1;" d="M 216.78125 151.394531 L 228.292969 151.394531 L 228.292969 156.539062 L 216.78125 156.539062 Z M 216.78125 151.394531 "/>
<path style=" stroke:none;fill-rule:nonzero;fill:rgb(0%,0%,0%);fill-opacity:1;" d="M 164.882812 169.355469 L 174.0625 169.355469 L 174.0625 174.496094 L 164.882812 174.496094 Z M 164.882812 169.355469 "/>
<path style=" stroke:none;fill-rule:nonzero;fill:rgb(0%,0%,0%);fill-opacity:1;" d="M 175.785156 169.355469 L 184.960938 169.355469 L 184.960938 174.496094 L 175.785156 174.496094 Z M 175.785156 169.355469 "/>
<path style=" stroke:none;fill-rule:nonzero;fill:rgb(0%,0%,0%);fill-opacity:1;" d="M 186.507812 169.355469 L 195.683594 169.355469 L 195.683594 174.496094 L 186.507812 174.496094 Z M 186.507812 169.355469 "/>
<path style=" stroke:none;fill-rule:nonzero;fill:rgb(0%,0%,0%);fill-opacity:1;" d="M 197.410156 169.355469 L 206.589844 169.355469 L 206.589844 174.496094 L 197.410156 174.496094 Z M 197.410156 169.355469 "/>
</g>
</svg>
