<?xml version="1.0" encoding="UTF-8"?>
<svg xmlns="http://www.w3.org/2000/svg" xmlns:xlink="http://www.w3.org/1999/xlink" width="256pt" height="256pt" viewBox="0 0 256 256" version="1.1">
<g id="surface1">
<path style=" stroke:none;fill-rule:nonzero;fill:rgb(19.215686%,47.058824%,77.647059%);fill-opacity:1;" d="M 25 0 L 231 0 C 244.808594 0 256 11.191406 256 25 L 256 231 C 256 244.808594 244.808594 256 231 256 L 25 256 C 11.191406 256 0 244.808594 0 231 L 0 25 C 0 11.191406 11.191406 0 25 0 Z M 25 0 "/>
<path style=" stroke:none;fill-rule:evenodd;fill:rgb(100%,100%,100%);fill-opacity:1;" d="M 158.5 203.5 L 158.5 228.5 C 162.550781 230.601562 167.5 232.148438 173 233.199219 C 178.5 234.25 184.5 234.75 190.5 234.75 C 196.5 234.75 202 234.199219 207.5 233.050781 C 213 231.898438 217.5 230 221.5 227.550781 C 225.550781 224.898438 229 221.550781 231 217.050781 C 233 212.550781 234.550781 207.550781 234.550781 201.050781 C 234.550781 196.5 233.851562 192.550781 232.5 189.050781 C 231.148438 185.550781 229.199219 182.550781 226.5 180.050781 C 223.949219 177.398438 221 175.050781 217.5 173.050781 C 214 171.050781 210 168.949219 205.5 167.050781 C 202.199219 165.699219 199.5 164.398438 196.5 163.101562 C 193.898438 161.800781 191.648438 160.5 190 159.199219 C 188.148438 157.851562 186.75 156.449219 185.75 155 C 184.75 153.5 184.25 151.851562 184.25 150 C 184.25 148.300781 184.695312 146.75 185.601562 145.351562 C 186.503906 143.949219 187.75 142.800781 189.351562 141.800781 C 190.949219 140.800781 192.949219 140.050781 195.351562 139.5 C 197.699219 138.949219 200.300781 138.699219 203.351562 138.699219 C 205.449219 138.699219 207.648438 138.855469 209.851562 139.171875 C 212.148438 139.484375 214.5 139.96875 216.851562 140.621094 C 219.199219 141.269531 221.5 142.070312 223.851562 143.070312 C 226.050781 144.070312 228.101562 145.21875 229.851562 146.519531 L 229.851562 123.019531 C 226.050781 121.570312 221.851562 120.46875 217.351562 119.769531 C 212.851562 119.070312 207.851562 118.71875 201.851562 118.71875 C 195.851562 118.71875 190.351562 119.371094 184.851562 120.621094 C 179.351562 121.871094 174.851562 123.871094 170.851562 126.621094 C 166.800781 129.320312 163.851562 132.621094 161.351562 137.121094 C 159 141.320312 157.851562 146.121094 157.851562 152.121094 C 157.851562 159.621094 160 166.121094 164.351562 171.121094 C 168.648438 176.621094 175.351562 180.621094 183.851562 184.621094 C 187.300781 186.019531 190.351562 187.421875 193.351562 188.769531 C 196.351562 190.121094 198.851562 191.519531 200.851562 192.96875 C 203 194.421875 204.699219 196.019531 205.851562 197.71875 C 207.101562 199.421875 207.75 201.421875 207.75 203.71875 C 207.75 205.320312 207.359375 206.820312 206.601562 208.21875 C 205.839844 209.621094 204.648438 210.820312 203.050781 211.820312 C 201.449219 212.820312 199.5 213.621094 197.050781 214.21875 C 194.699219 214.769531 192.050781 215.070312 188.550781 215.070312 C 183.050781 215.070312 177.550781 214.121094 172.550781 212.21875 C 167.050781 210.320312 162.050781 207.46875 157.550781 203.71875 Z M 116.5 142 L 148.5 142 L 148.5 121.5 L 59 121.5 L 59 142 L 91 142 L 91 233.5 L 116.5 233.5 Z M 116.5 142 "/>
</g>
</svg>
