<?xml version="1.0" encoding="utf-8"?>
<!-- Generator: Adobe Illustrator 24.0.2, SVG Export Plug-In . SVG Version: 6.00 Build 0)  -->
<svg version="1.1" id="Layer_1" xmlns="http://www.w3.org/2000/svg" xmlns:xlink="http://www.w3.org/1999/xlink" x="0px" y="0px"
	 viewBox="0 0 170 50" style="enable-background:new 0 0 170 50;" xml:space="preserve">
<style type="text/css">
	.st0{fill:#00ADEE;}
	.st1{fill:#FFFFFF;}
</style>
<g>
	<polygon class="st0" points="17.2,8.8 8.9,0.6 0.8,8.7 9,17 	"/>
	<polygon class="st1" points="17.2,25.1 41.6,49.4 49.8,41.3 25.4,17 	"/>
	<polygon class="st1" points="41.6,0.6 49.8,8.7 8.9,49.4 0.8,41.3 	"/>
</g>
<g>
	<path class="st1" d="M66.7,31.2h-2.6V17.4h2.6V31.2z"/>
	<path class="st1" d="M74.1,26.4l-2.9,4.8h-3.1l4.5-7.1l-4.3-6.7h3.1l2.7,4.5l2.7-4.5h3.1l-4.3,6.7l4.4,7.1H77L74.1,26.4z"/>
	<path class="st1" d="M84.6,19.8v11.4H82V19.8h-3.7v-2.4h10v2.4H84.6z"/>
	<path class="st1" d="M90.7,28.7h6.9v2.4h-9.5V17.4h2.6V28.7z"/>
	<path class="st1" d="M100.5,28.4l-0.9,2.8h-2.8l4.8-13.8h3.3l4.8,13.8H107l-0.9-2.8H100.5z M103.3,20.3l-1.9,5.7h3.9L103.3,20.3z"
		/>
	<path class="st1" d="M120.9,31.2h-3.2l-5.6-9.8v9.8h-2.6V17.4h3.2l5.6,9.8v-9.8h2.6V31.2z"/>
	<path class="st1" d="M128.5,19v12.2h-1.7V19h-4.3v-1.6h10.4V19H128.5z"/>
	<path class="st1" d="M142.6,17.4V19h-8.2v4.2h7.4v1.6h-7.4v4.8h8.2v1.6h-9.9V17.4H142.6z"/>
	<path class="st1" d="M145.1,27.2l-1.5,4h-1.8l5.2-13.8h1.9l5.1,13.8h-1.9l-1.5-4H145.1z M147.9,19.4l-2.2,6.2h4.5L147.9,19.4z"/>
	<path class="st1" d="M167,31.2h-1.7V19.6l-4,11.6h-1.8l-4-11.6v11.6h-1.7V17.4h2.6l4.1,11.6l4.1-11.6h2.6V31.2z"/>
</g>
</svg>
